{"title":"Aashiqui-2 (2013) Hindi - BRRIP - x264 - 720p - AC3 - PAVAN","uid":8588670,"size":946692503,"categoryP":"video","categoryS":"hd___movies","magnet":"?xt=urn:btih:abff5c3431e186b968a00e2a7cf565931fd6f9a9&amp;dn=Aashiqui-2+%282013%29+Hindi+-+BRRIP+-+x264+-+720p+-+AC3+-+PAVAN&amp;tr=udp%3A%2F%2Ftracker.openbittorrent.com%3A80&amp;tr=udp%3A%2F%2Fopen.demonii.com%3A1337&amp;tr=udp%3A%2F%2Ftracker.coppersurfer.tk%3A6969&amp;tr=udp%3A%2F%2Fexodus.desync.com%3A6969","seeders":1,"leechers":0,"uploader":"pavanace","files":10,"time":1371586703,"description":"//bayimg.com/oANBjaAeF\n\n\nMOVIE IMBD :http://www.imdb.com/title/tt2203308/\n\n\n\n\nCAST :\nAditya Roy Kapoor as Rahul Jaykar\nShraddha Kapoor as Aarohi Keshav Shirke\nShaad Randhawa as Vivek\nMahesh Thakur as Saigal Uncle\nShubhangi Latkar as Aarohi's Mother\nChitrak Bandhopadyay as Salim Bhai\nMahesh Bhatt as Rahul's Father (voice)\nBugs Bhargava\nSalil Acharya as Aryan\nShekhar Shukla\nGagan Gupta\nGaurav Sharma\nAshish Bhatt as Reporter.\n\n\nFormat                                   : Matroska\nFormat version                           : Version 4 / Version 2\nFile size                                : 898 MiB\nDuration                                 : 2h 12mn\nOverall bit rate                         : 947 Kbps\nEncoded date                             : UTC 2013-06-18 17:33:47\nWriting application                      : mkvmerge v6.0.0 ('Coming Up For Air') built on Jan 20 2013 09:52:00\nWriting library                          : libebml v1.3.0 + libmatroska v1.4.0\n\nVideo\nID                                       : 1\nFormat                                   : AVC\nFormat/Info                              : Advanced Video Codec\nFormat profile                           : &lt;a class=&quot;__cf_email__&quot; href=&quot;/cdn-cgi/l/email-protection&quot; data-cfemail=&quot;c38baaa4ab838ff0edf2&quot;&gt;[email&amp;#160;protected]&lt;/a&gt;&lt;script cf-hash='f9e31' type=&quot;text/javascript&quot;&gt;\n/* &lt;![CDATA[ */!function(){try{var t=&quot;currentScript&quot;in document?document.currentScript:function(){for(var t=document.getElementsByTagName(&quot;script&quot;),e=t.length;e--;)if(t[e].getAttribute(&quot;cf-hash&quot;))return t[e]}();if(t&amp;&amp;t.previousSibling){var e,r,n,i,c=t.previousSibling,a=c.getAttribute(&quot;data-cfemail&quot;);if(a){for(e=&quot;&quot;,r=parseInt(a.substr(0,2),16),n=2;a.length-n;n+=2)i=parseInt(a.substr(n,2),16)^r,e+=String.fromCharCode(i);e=document.createTextNode(e),c.parentNode.replaceChild(e,c)}}}catch(u){}}();/* ]]&gt; */&lt;/script&gt;\nFormat settings, CABAC                   : Yes\nFormat settings, ReFrames                : 4 frames\nCodec ID                                 : V_MPEG4/ISO/AVC\nDuration                                 : 2h 12mn\nBit rate                                 : 817 Kbps\nWidth                                    : 1 280 pixels\nHeight                                   : 544 pixels\nDisplay aspect ratio                     : 2.35:1\nFrame rate mode                          : Constant\nFrame rate                               : 24.000 fps\nColor space                              : YUV\nChroma subsampling                       : 4:2:0\nBit depth                                : 8 bits\nScan type                                : Progressive\nBits/(Pixel*Frame)                       : 0.049\nStream size                              : 759 MiB (84%)\nWriting library                          : x264 core 130 r2273 b3065e6\nEncoding settings                        : cabac=1 / ref=3 / deblock=1:0:0 /  \nLanguage                                 : English\nDefault                                  : Yes\nForced                                   : No\n\n\n\nAudio\nID                                       : 2\nFormat                                   : AC-3\nFormat/Info                              : Audio Coding 3\nMode extension                           : CM (complete main)\nFormat settings, Endianness              : Big\nCodec ID                                 : A_AC3\nDuration                                 : 2h 12mn\nBit rate mode                            : Constant\nBit rate                                 : 128 Kbps\nChannel(s)                               : 2 channels\nChannel positions                        : Front: L R\nSampling rate                            : 48.0 KHz\nBit depth                                : 16 bits\nCompression mode                         : Lossy\nStream size                              : 121 MiB (14%)\nDefault                                  : Yes\nForced                                   : No\n\n\n\n//bayimg.com/oANBeaAeF\n\n//bayimg.com/OANbfAAEF\n\n//bayimg.com/OaNbgaAEF\n\n//bayimg.com/OaNbhAAEF\n\n//bayimg.com/OANBiAaef\n","torrent":{"xt":"urn:btih:abff5c3431e186b968a00e2a7cf565931fd6f9a9","amp;dn":"Aashiqui-2+%282013%29+Hindi+-+BRRIP+-+x264+-+720p+-+AC3+-+PAVAN","amp;tr":["udp%3A%2F%2Ftracker.openbittorrent.com%3A80","udp%3A%2F%2Fopen.demonii.com%3A1337","udp%3A%2F%2Ftracker.coppersurfer.tk%3A6969","udp%3A%2F%2Fexodus.desync.com%3A6969"],"infoHash":"abff5c3431e186b968a00e2a7cf565931fd6f9a9","infoHashBuffer":{"type":"Buffer","data":[171,255,92,52,49,225,134,185,104,160,14,42,124,245,101,147,31,214,249,169]},"announce":[],"urlList":[]}}